<?xml version="1.0" standalone="no"?>
<!DOCTYPE svg PUBLIC "-//W3C//DTD SVG 20010904//EN"
 "http://www.w3.org/TR/2001/REC-SVG-20010904/DTD/svg10.dtd">
<svg version="1.0" xmlns="http://www.w3.org/2000/svg"
 width="2000.000000pt" height="669.000000pt" viewBox="0 0 2000.000000 669.000000"
 preserveAspectRatio="xMidYMid meet">

<g transform="translate(0.000000,669.000000) scale(0.100000,-0.100000)"
fill="#000000" stroke="none">
<path d="M13420 3537 l0 -1257 150 0 150 0 0 870 0 870 850 -910 850 -910 0
1255 0 1255 -145 0 -145 0 -2 -868 -3 -868 -815 873 c-448 481 -832 890 -852
910 l-38 37 0 -1257z"/>
<path d="M5145 4749 c-530 -77 -968 -503 -1061 -1030 -21 -121 -22 -326 -1
-444 44 -250 168 -485 352 -670 253 -254 596 -388 955 -372 330 15 610 137
840 367 189 188 298 389 355 655 24 111 25 359 2 478 -102 516 -525 928 -1037
1012 -102 16 -306 18 -405 4z m430 -308 c88 -23 219 -82 293 -132 68 -47 187
-164 238 -235 281 -392 231 -955 -114 -1286 -257 -247 -617 -329 -957 -217
-420 139 -698 581 -645 1029 27 240 117 429 279 591 151 152 329 240 546 273
72 11 282 -3 360 -23z"/>
<path d="M3470 3788 c0 -999 0 -989 -55 -1097 -44 -88 -147 -154 -261 -166
-148 -17 -291 52 -402 194 l-19 25 -16 -52 c-8 -28 -28 -101 -43 -162 l-29
-111 40 -34 c51 -44 144 -90 220 -111 33 -9 117 -19 186 -21 105 -4 139 -2
206 15 128 32 207 76 293 162 83 83 126 155 162 270 l23 75 3 968 3 967 -156
0 -155 0 0 -922z"/>
<path d="M6940 3495 l0 -1215 394 0 c427 0 504 7 632 55 190 71 360 235 438
423 83 197 78 441 -13 620 -64 127 -198 265 -316 324 -22 11 -41 22 -43 23 -1
1 27 32 63 68 296 296 129 813 -291 902 -54 11 -156 15 -466 15 l-398 0 0
-1215z m755 934 c80 -15 145 -49 192 -103 48 -55 63 -101 63 -198 0 -124 -50
-201 -170 -257 -54 -25 -61 -26 -292 -29 l-238 -4 0 301 0 301 193 0 c106 0
220 -5 252 -11z m94 -872 c118 -34 225 -111 284 -203 36 -58 74 -170 82 -244
19 -181 -83 -385 -239 -479 -101 -60 -162 -72 -428 -78 l-238 -6 0 518 0 517
243 -5 c174 -4 257 -9 296 -20z"/>
<path d="M9440 3495 l0 -1215 155 0 155 0 0 680 0 680 430 0 430 0 0 -680 0
-680 155 0 155 0 0 1215 0 1215 -155 0 -155 0 0 -395 0 -395 -430 0 -430 0 0
395 0 395 -155 0 -155 0 0 -1215z"/>
<path d="M11383 3808 c4 -1025 -1 -960 89 -1147 43 -90 62 -116 132 -185 160
-159 329 -226 567 -226 232 0 396 61 548 205 116 110 190 243 222 400 17 84
19 151 19 973 l0 882 -144 0 -145 0 -3 -887 c-4 -827 -5 -892 -22 -943 -64
-194 -201 -318 -387 -351 -206 -37 -421 71 -508 255 -61 126 -61 132 -61 1072
l0 854 -155 0 -156 0 4 -902z"/>
<path d="M15720 4575 l0 -135 325 0 325 0 0 -1080 0 -1080 155 0 155 0 0 1080
0 1080 325 0 325 0 0 135 0 135 -805 0 -805 0 0 -135z"/>
<path d="M3285 1648 c-40 -14 -84 -56 -101 -95 -17 -38 -18 -120 -3 -160 24
-64 97 -113 168 -113 47 0 110 39 137 86 31 52 36 143 11 190 -43 83 -130 121
-212 92z m118 -46 c71 -62 59 -245 -18 -280 -40 -18 -71 -14 -104 13 -39 33
-54 83 -49 156 8 115 100 175 171 111z"/>
<path d="M4315 1651 c-47 -12 -72 -28 -102 -67 -56 -74 -39 -206 33 -263 36
-29 100 -44 152 -37 75 10 82 18 82 91 0 51 3 65 15 65 8 0 15 5 15 10 0 6
-30 10 -70 10 -40 0 -70 -4 -70 -10 0 -5 11 -10 25 -10 24 0 25 -3 25 -59 0
-67 -13 -79 -73 -67 -66 13 -107 76 -107 162 0 90 48 146 126 148 48 1 74 -17
74 -51 0 -18 5 -24 18 -21 12 2 18 15 20 45 l3 41 -51 11 c-56 12 -71 12 -115
2z"/>
<path d="M4667 1646 c-50 -18 -76 -42 -98 -91 -53 -115 12 -253 126 -271 153
-23 253 145 172 289 -39 69 -125 101 -200 73z m98 -32 c44 -20 66 -69 66 -143
1 -137 -96 -208 -176 -128 -55 55 -60 185 -9 246 21 26 35 33 77 40 5 0 24 -6
42 -15z"/>
<path d="M6473 1649 c-43 -13 -73 -53 -73 -99 0 -43 21 -66 96 -103 62 -31 76
-48 72 -84 -4 -38 -48 -59 -97 -47 -31 8 -37 14 -41 44 -3 23 -11 36 -22 38
-15 3 -18 -4 -18 -47 0 -49 1 -50 38 -60 105 -30 197 16 197 99 0 49 -16 66
-93 103 -75 36 -93 63 -68 101 32 50 116 43 116 -9 0 -16 6 -25 15 -25 11 0
15 11 15 40 0 37 -2 40 -37 49 -44 13 -57 13 -100 0z"/>
<path d="M2820 1635 c0 -8 6 -15 14 -15 8 0 37 -42 65 -94 44 -81 51 -101 51
-151 0 -48 -3 -58 -20 -62 -43 -11 -17 -23 50 -23 72 0 87 8 48 25 -19 8 -24
19 -26 64 -3 49 1 60 53 147 31 52 62 94 70 94 8 0 15 7 15 15 0 12 -13 15
-55 15 -55 0 -76 -16 -35 -27 11 -3 20 -7 20 -8 0 -8 -73 -126 -81 -131 -6 -4
-50 69 -77 129 -2 4 3 7 12 7 9 0 16 7 16 15 0 12 -13 15 -60 15 -47 0 -60 -3
-60 -15z"/>
<path d="M3550 1639 c0 -6 9 -13 19 -16 17 -4 19 -17 23 -136 4 -141 11 -164
57 -189 35 -19 130 -16 163 6 38 25 48 64 48 197 0 112 1 119 20 119 11 0 20
7 20 15 0 12 -13 15 -55 15 -42 0 -55 -3 -55 -15 0 -8 9 -15 20 -15 19 0 20
-7 20 -109 0 -160 -16 -191 -99 -191 -28 0 -46 6 -61 22 -18 20 -20 35 -20
149 0 118 1 127 20 132 11 3 20 10 20 16 0 7 -26 11 -70 11 -44 0 -70 -4 -70
-11z"/>
<path d="M4930 1605 c0 -51 26 -66 32 -17 3 24 7 27 46 30 l42 3 0 -151 c0
-143 -1 -152 -20 -157 -43 -11 -17 -23 50 -23 72 0 87 8 48 25 -22 10 -23 15
-26 158 l-3 147 44 0 c41 0 45 -2 51 -30 9 -50 36 -39 36 15 l0 45 -150 0
-150 0 0 -45z"/>
<path d="M5490 1605 c0 -51 26 -66 32 -17 3 24 7 27 46 30 l42 3 0 -151 c0
-143 -1 -152 -20 -157 -43 -11 -17 -23 50 -23 72 0 87 8 48 25 -22 10 -23 15
-26 158 l-3 147 44 0 c41 0 45 -2 51 -30 9 -50 36 -39 36 15 l0 45 -150 0
-150 0 0 -45z"/>
<path d="M5815 1639 c-4 -6 2 -13 14 -16 20 -5 21 -11 21 -155 0 -141 -1 -150
-20 -155 -43 -11 -17 -23 50 -23 67 0 93 12 50 23 -18 5 -20 14 -20 76 l0 71
85 0 85 0 0 -71 c0 -62 -2 -71 -20 -76 -43 -11 -17 -23 50 -23 67 0 93 12 50
23 -19 5 -20 14 -20 155 0 141 1 150 20 155 11 3 20 10 20 16 0 7 -26 11 -70
11 -44 0 -70 -4 -70 -11 0 -6 9 -13 20 -16 17 -5 20 -14 20 -69 l0 -64 -85 0
-85 0 0 65 c0 58 2 65 20 65 11 0 20 7 20 15 0 12 -14 15 -64 15 -36 0 -68 -5
-71 -11z"/>
<path d="M6210 1640 c0 -6 11 -15 25 -20 l26 -10 -3 -142 c-3 -137 -4 -143
-25 -153 -40 -17 -25 -25 47 -25 67 0 93 12 50 23 -19 5 -20 14 -20 156 0 144
1 151 20 151 11 0 20 7 20 15 0 12 -14 15 -70 15 -41 0 -70 -4 -70 -10z"/>
</g>
</svg>
